<svg id="图层_1" data-name="图层 1" xmlns="http://www.w3.org/2000/svg" viewBox="0 0 640 640"><defs><style>.cls-1{fill:#a52b00;}.cls-2{fill:#f74c00;}.cls-3,.cls-8{fill:#fff;}.cls-4{fill:#00599c;}.cls-5{fill:#004482;}.cls-6{fill:#659ad2;}.cls-7,.cls-8,.cls-9{stroke:#000;stroke-miterlimit:4;stroke-width:1.17px;}.cls-9{fill:none;}</style></defs><path class="cls-1" d="M356,282.58c-59.21,0-112.73,6.81-153,17.91V298c-40.3,12.4-66,29.63-66,48.68a22.79,22.79,0,0,0,1.91,8.86l-4.12,7.08s-3.32,4.13,2.55,12.85c5.17,7.68,31.08,37.77,44.76,53.53,5.87,8.08,9.86,13,10.21,12.57.55-.76-3.65-15.93-15.32-33.23a313.47,313.47,0,0,1-16-30.7c10.89,6.59,25.42,12.57,42,17.72v-.08c40.31,11.1,93.83,17.91,153,17.91,67.77,0,128.58-8.92,169.4-23V305.56c-40.82-14.06-101.63-23-169.4-23"/><path class="cls-1" d="M586.27,361.07l-6.94-13.75c0-.52.06-1,.06-1.57,0-15.59-16.95-30-45.47-41.46v82.92c13.31-5.36,24.11-11.35,31.83-17.8-2.28,8.73-10,26.41-16.24,38.84-10.19,17.79-13.87,33.26-13.4,34,.3.48,3.78-4.64,8.9-12.95,11.92-16.24,34.51-47.26,39-55.16,5.11-9,2.23-13.1,2.23-13.1"/><path class="cls-2" d="M626.58,361,581,328.85c-.43-1.43-.86-2.86-1.3-4.28l15-20.76a7.51,7.51,0,0,0-4.9-11.8L564.4,287.9c-1-1.92-2-3.81-3-5.68L572,258.91a7.51,7.51,0,0,0-7.11-10.62l-25.72.89q-2-2.49-4.06-4.91l5.91-25a7.52,7.52,0,0,0-9-9l-25.05,5.89q-2.43-2.06-4.94-4l.9-25.65a7.46,7.46,0,0,0-3.34-6.5,7.55,7.55,0,0,0-7.3-.6L468.87,190c-1.88-1-3.78-2.06-5.69-3.05l-4.13-25.27a7.54,7.54,0,0,0-11.83-4.89L426.39,171.7c-2.05-.65-4.11-1.27-6.2-1.87l-9-24a7.53,7.53,0,0,0-12.55-2.5l-17.54,18.77q-3.18-.36-6.37-.63l-13.54-21.82a7.54,7.54,0,0,0-12.8,0L334.86,161.5c-2.12.18-4.26.39-6.37.63L311,143.36a7.59,7.59,0,0,0-7-2.24,7.5,7.5,0,0,0-5.58,4.74l-9,24c-2.08.6-4.14,1.23-6.2,1.87l-20.83-14.95a7.54,7.54,0,0,0-11.83,4.89l-4.13,25.27c-1.92,1-3.81,2-5.7,3.05l-23.36-10.63a7.54,7.54,0,0,0-7.31.6,7.46,7.46,0,0,0-3.34,6.5l.9,25.65q-2.49,2-4.94,4l-25-5.89a7.53,7.53,0,0,0-9.07,9l5.9,25c-1.37,1.62-2.72,3.25-4.05,4.91l-25.71-.89a7.51,7.51,0,0,0-7.12,10.62l10.65,23.31c-1,1.87-2.06,3.76-3,5.68L119.84,292a7.51,7.51,0,0,0-4.9,11.8l15,20.76-.33,1.11L87.21,368.73s-6.49,4.87,3,16.31c8.34,10.09,51.15,50.1,73.76,71.06,9.55,10.64,16.09,17.23,16.77,16.66,1.08-.91-4.58-20.26-23.39-43-14.5-20.38-33.32-51.72-28.91-55.34,0,0,5-6.09,15.1-10.48.36.29-.39-.28,0,0,0,0,212.53,93.77,409.67,1.59,22.52-3.86,36.16,7.67,36.16,7.67,4.7,2.61-7.48,34.84-17.49,56.18-13.62,24.22-15.61,43.13-14.46,43.78.73.42,5.69-6.79,12.75-18.27,17.44-23.23,50.4-67.53,56.44-78.29,6.84-12.2,0-15.62,0-15.62"/><path d="M429.18,420.39c.82-.66,1.24-1.06,1.24-1.06l-69.57-6.18c56.78-71.65,102.24-13.84,107.08-7.46v14.7Z"/><path d="M395.13,312.13s21.24-22.24,42.48,0c0,0,16.68,29.66,0,44.49,0,0-27.31,20.76-42.48,0,0,0-18.21-16.31,0-44.49"/><path class="cls-3" d="M419.72,320.38c0,8.66-5.34,15.68-11.93,15.68s-11.92-7-11.92-15.68,5.34-15.68,11.92-15.68,11.93,7,11.93,15.68"/><path d="M300.33,306.06s36.43-15.43,46.38,19c0,0,10.41,40.13-29.92,42.4,0,0-51.44-9.48-16.46-61.41"/><path class="cls-3" d="M318.63,321c0,8.93-5.51,16.18-12.3,16.18S294,329.88,294,321s5.51-16.17,12.29-16.17,12.3,7.24,12.3,16.17"/><path class="cls-2" d="M94.7,297.07s67.38-51.25-13.24-105.7l-2.18,69.4-10.19,34s2.94,32.47,81.12,71.67l11.6-25S104.41,320.08,94.7,297.07Z"/><path class="cls-4" d="M138.69,205.6a10,10,0,0,0-.11-5l-16.51-51.42a9.89,9.89,0,0,0-2.84-4.15L76.48,192.15Z"/><path class="cls-5" d="M100.25,250.14l36.26-40a10,10,0,0,0,2.18-4.54L76.48,192.15,33.73,239.31a10,10,0,0,0,4.41,2.42l52.78,11.41A10.85,10.85,0,0,0,100.25,250.14Z"/><path class="cls-6" d="M119.23,145a10.09,10.09,0,0,0-4.41-2.43L62,131.17a10.88,10.88,0,0,0-9.33,3l-36.27,40a10.86,10.86,0,0,0-2.07,9.57l16.51,51.41a10.1,10.1,0,0,0,2.85,4.16l42.75-47.16Z"/><path class="cls-3" d="M88,228.05a37.71,37.71,0,1,1,13.79-63.84l-12.65,14a18.85,18.85,0,1,0,5.76,17.94l18.43,4A37.85,37.85,0,0,1,88,228.05Z"/><polygon class="cls-3" points="111.74 178.63 107.75 179.91 106.47 175.92 102.48 177.2 103.76 181.19 99.77 182.47 101.05 186.46 105.04 185.18 106.32 189.17 110.31 187.89 109.03 183.9 113.02 182.62 111.74 178.63"/><polygon class="cls-3" points="126.7 173.83 122.71 175.11 121.43 171.12 117.44 172.4 118.72 176.39 114.73 177.67 116.01 181.66 120 180.38 121.28 184.37 125.27 183.09 123.99 179.1 127.98 177.81 126.7 173.83"/><path class="cls-2" d="M56.45,200.14s-74.29,34.18,12.64,94.67l10.19-34S55.39,238.73,56.45,200.14Z"/><path class="cls-2" d="M535.82,349.87s-7.61,29-54.92,59.43l-13.27,3s-42.92-74.86-103.73,9.5c0,0,19-10.56,69.75,2.3L477,434.23s72.58-26.84,78.47-84.36Z"/><g id="node1"><circle class="cls-7" cx="437.87" cy="407.47" r="12.84"/></g><g id="node2"><circle class="cls-8" cx="371.36" cy="434.04" r="12.84"/></g><g id="edge1"><path class="cls-9" d="M426,412.48l-36.79,14.23"/><polygon class="cls-7" points="389.68 428.73 383.5 428.93 388.21 424.92 389.68 428.73"/></g><g id="node3"><circle class="cls-8" cx="401.88" cy="469.39" r="12.84"/></g><g id="edge2"><path class="cls-9" d="M431.18,418.48c-5.32,9.4-13.3,23.47-19.44,34.31"/><polygon class="cls-7" points="413.37 454.06 408.71 458.13 409.81 452.04 413.37 454.06"/></g><g id="node4"><circle class="cls-7" cx="335.37" cy="495.96" r="12.84"/></g><g id="edge3"><path class="cls-9" d="M364.67,445.05c-5.32,9.4-13.3,23.47-19.44,34.32"/><polygon class="cls-7" points="346.86 480.63 342.2 484.7 343.3 478.62 346.86 480.63"/></g><g id="edge4"><path class="cls-9" d="M390,474.4l-36.78,14.23"/><polygon class="cls-7" points="353.69 490.65 347.51 490.85 352.21 486.84 353.69 490.65"/></g><path class="cls-2" d="M363.2,457.23S408.32,509,477,434.23l-43.32-10.15S410.28,458.29,363.2,457.23Z"/></svg>